#!OML:ASF F:\VICON\USERDATA\INSTALL\rory3\rory3.ASF
:FULLY-SPECIFIED
:DEGREES
241
root 1.14162 18.0753 6.35071 -3.52805 -1.89859 1.60532
lowerback 8.97028 0.271196 -2.33882
upperback 1.69358 0.170959 0.88409
thorax -3.28099 0.110633 2.21282
lowerneck -15.4566 -2.75736 -0.762763
upperneck 16.3573 -3.53172 -0.335095
head 7.59087 -1.76539 -0.372408
rclavicle -8.15017e-015 -1.03368e-014
rhumerus -31.8934 -21.0452 -76.7122
rradius 27.1668
rwrist 4.60879
rhand -13.1924 20.2989
rfingers 7.12502
rthumb 12.9077 -9.28187
lclavicle -8.15017e-015 -1.03368e-014
lhumerus -32.1322 -0.750572 81.0436
lradius 32.5839
lwrist 1.09499
lhand -21.3606 35.2172
lfingers 7.12502
lthumb 5.02621 65.1376
rfemur -27.0717 -0.281527 20.0232
rtibia 62.3558
rfoot -11.4674 -7.57014
rtoes -10.5406
lfemur -7.15543 -4.26552 -26.7791
ltibia 32.763
lfoot -17.5257 3.06039
ltoes -4.00404
242
root 1.13837 18.0681 6.48787 -3.48369 -1.91546 1.58829
lowerback 8.99332 0.224735 -2.41476
upperback 1.74717 0.104248 0.951914
thorax -3.23463 0.0772028 2.33385
lowerneck -15.8532 -2.70249 -0.890201
upperneck 16.5735 -3.45962 -0.147923
head 7.73765 -1.71897 -0.290564
rclavicle -4.17448e-015 -3.18055e-015
rhumerus -31.7865 -20.9047 -76.7648
rradius 27.1662
rwrist 4.62511
rhand -13.6859 20.4797
rfingers 7.12502
rthumb 12.432 -9.13063
lclavicle -4.17448e-015 -3.18055e-015
lhumerus -31.8299 -1.55291 81.317
lradius 32.8206
lwrist 3.3689
lhand -23.8634 31.0243
lfingers 7.12502
lthumb 2.60931 60.9881
rfemur -27.6589 -0.250555 20.1196
rtibia 60.5825
rfoot -12.2804 -7.33089
rtoes -10.1396
lfemur -6.61132 -4.13848 -26.7809
ltibia 32.5083
lfoot -18.1797 3.05837
ltoes -3.21065
243
root 1.13776 18.0586 6.63564 -3.44938 -2.02946 1.70867
lowerback 8.93402 0.226777 -2.5973
upperback 1.65125 0.0919203 0.988559
thorax -3.30074 0.0750887 2.47646
lowerneck -15.5355 -2.7101 -1.06507
upperneck 16.6625 -3.46644 0.0234298
head 7.71809 -1.7174 -0.202589
rclavicle 3.57812e-015 -1.23246e-014
rhumerus -32.1434 -21.0561 -76.5252
rradius 27.4574
rwrist 5.37212
rhand -14.2343 18.7245
rfingers 7.12502
rthumb 11.9032 -10.9172
lclavicle 3.57812e-015 -1.23246e-014
lhumerus -31.803 -1.74382 81.2301
lradius 33.1634
lwrist 3.10539
lhand -24.2143 29.1112
lfingers 7.12502
lthumb 2.2704 59.0789
rfemur -28.1714 -0.04841 20.0199
rtibia 58.6544
rfoot -12.9914 -6.97592
rtoes -8.34457
lfemur -6.01824 -3.99339 -26.971
ltibia 32.2575
lfoot -18.0055 3.26577
ltoes -5.42878
244
root 1.14006 18.0539 6.78594 -3.34439 -2.04401 2.03448
lowerback 8.89177 0.151533 -3.03595
upperback 1.4651 -0.0495864 0.993977
thorax -3.46115 0.0146513 2.74674
lowerneck -15.1094 -2.70894 -1.03042
upperneck 16.5456 -3.45937 -0.0725781
head 7.60224 -1.72311 -0.231478
rclavicle 8.02593e-015 9.14409e-015
rhumerus -32.5142 -21.0189 -76.3655
rradius 27.645
rwrist 5.58162
rhand -14.2717 17.1292
rfingers 7.12502
rthumb 11.8671 -12.5145
lclavicle 8.02593e-015 9.14409e-015
lhumerus -31.7346 -1.98956 81.1651
lradius 33.3575
lwrist 3.34582
lhand -25.2354 27.5534
lfingers 7.12502
lthumb 1.2842 57.5293
rfemur -28.6382 -0.040586 19.6623
rtibia 56.5749
rfoot -12.8786 -7.2614
rtoes -8.27051
lfemur -5.50186 -3.8531 -27.3871
ltibia 32.1609
lfoot -18.3935 3.34717
ltoes -5.13781
245
root 1.14235 18.0554 6.92787 -3.247 -1.94828 2.04254
lowerback 8.88623 0.0525579 -3.03997
upperback 1.5285 -0.180072 1.0139
thorax -3.38293 -0.0522857 2.78463
lowerneck -15.3304 -2.74796 -0.932165
upperneck 16.4675 -3.51456 -0.16531
head 7.61168 -1.75168 -0.286517
rclavicle 3.18055e-015 -1.63003e-014
rhumerus -32.2476 -21.0165 -76.5102
rradius 27.3709
rwrist 4.90744
rhand -13.5996 16.2113
rfingers 7.12502
rthumb 12.5151 -13.3939
lclavicle 3.18055e-015 -1.63003e-014
lhumerus -31.3093 -2.79359 81.3372
lradius 33.7189
lwrist 5.02135
lhand -27.1298 24.905
lfingers 7.12502
lthumb -0.545425 54.884
rfemur -28.9652 -0.168015 19.671
rtibia 54.3624
rfoot -12.6063 -7.75077
rtoes -8.324
lfemur -4.88493 -4.05443 -27.4729
ltibia 32.0182
lfoot -18.9557 3.39661
ltoes -2.33767
246
root 1.1367 18.0488 7.06015 -3.08006 -2.13361 1.50838
lowerback 8.82985 0.0547908 -2.51158
upperback 1.65108 -0.119492 1.17419
thorax -3.2296 -0.0312394 2.64494
lowerneck -15.615 -2.78857 -1.02434
upperneck 16.419 -3.57676 0.00353322
head 7.65085 -1.76972 -0.22688
rclavicle 3.45388e-015 1.19271e-014
rhumerus -31.848 -21.2774 -76.613
rradius 27.0829
rwrist 4.51438
rhand -13.986 17.335
rfingers 7.12502
rthumb 12.1426 -12.2927
lclavicle 3.45388e-015 1.19271e-014
lhumerus -30.55 -2.42771 80.8706
lradius 34.2914
lwrist 2.18382
lhand -23.7976 31.3744
lfingers 7.12502
lthumb 2.67288 61.3374
rfemur -29.3334 0.224889 20.3469
rtibia 52.052
rfoot -12.173 -8.37397
rtoes -8.95176
lfemur -4.38112 -4.09167 -26.905
ltibia 31.7083
lfoot -19.2618 3.50993
ltoes -1.24102
247
root 1.13248 18.0536 7.19856 -2.97538 -2.21385 1.48152
lowerback 8.79106 0.0529214 -2.56781
upperback 1.65718 -0.123396 1.25588
thorax -3.2011 -0.0328882 2.76185
lowerneck -15.6247 -2.82797 -1.21174
upperneck 16.4703 -3.62607 0.208408
head 7.67758 -1.78477 -0.135251
rclavicle 2.11209e-015 1.11319e-014
rhumerus -31.7639 -21.336 -76.5544
rradius 27.075
rwrist 4.47694
rhand -14.2792 18.646
rfingers 7.12502
rthumb 11.8599 -10.9981
lclavicle 2.11209e-015 1.11319e-014
lhumerus -30.0226 -2.43503 80.7333
lradius 34.477
lwrist 1.28939
lhand -22.4886 32.6917
lfingers 7.12502
lthumb 3.93693 62.6351
rfemur -29.5876 0.507762 20.4159
rtibia 49.6492
rfoot -11.5954 -8.95629
rtoes -9.2409
lfemur -3.87928 -4.14585 -26.9338
ltibia 31.3063
lfoot -19.1829 3.69142
ltoes -1.83308
248
root 1.13401 18.0574 7.35293 -2.94394 -2.06989 2.07875
lowerback 8.70681 -0.0278772 -3.17802
upperback 1.66027 -0.288931 1.13793
thorax -3.13709 -0.110976 3.00193
lowerneck -15.7629 -2.82852 -1.13215
upperneck 16.6061 -3.62754 0.11571
head 7.74325 -1.78866 -0.182277
rclavicle 1.20762e-014 1.23246e-014
rhumerus -31.8349 -21.0018 -76.6662
rradius 27.2287
rwrist 4.24266
rhand -13.5412 18.3165
rfingers 7.12502
rthumb 12.5714 -11.2853
lclavicle 1.20762e-014 1.23246e-014
lhumerus -29.7444 -2.86791 80.6945
lradius 34.7703
lwrist 1.75477
lhand -23.1095 30.2118
lfingers 7.12502
lthumb 3.33735 60.1654
rfemur -29.6608 0.393074 19.7387
rtibia 47.1678
rfoot -10.8683 -9.26844
rtoes -10.2166
lfemur -3.28472 -4.14563 -27.7009
ltibia 30.7676
lfoot -19.0268 3.93814
ltoes -4.71036
249
root 1.13649 18.0649 7.4957 -2.8219 -1.87049 2.36816
lowerback 8.67531 -0.12599 -3.40496
upperback 1.68358 -0.441463 1.06206
thorax -3.08255 -0.186384 3.06768
lowerneck -15.8809 -2.80895 -1.0193
upperneck 16.4552 -3.61353 0.057616
head 7.71049 -1.78052 -0.218498
rclavicle -6.36111e-015 2.38542e-015
rhumerus -31.8133 -20.9636 -76.7537
rradius 27.3636
rwrist 4.59734
rhand -13.7572 20.2983
rfingers 7.12502
rthumb 12.3632 -9.31615
lclavicle -6.36111e-015 2.38542e-015
lhumerus -29.252 -3.38321 80.6568
lradius 34.8556
lwrist 2.54869
lhand -23.4695 29.0831
lfingers 7.12502
lthumb 2.98973 59.0419
rfemur -29.6791 0.262251 19.3921
rtibia 44.5709
rfoot -10.1869 -9.41795
rtoes -11.2429
lfemur -2.37818 -4.50357 -28.0969
ltibia 30.0961
lfoot -19.2414 3.73088
ltoes -2.51078
250
root 1.1356 18.0706 7.6301 -2.71381 -1.88653 2.33577
lowerback 8.68302 -0.155051 -3.38802
upperback 1.67965 -0.476849 1.11947
thorax -3.08779 -0.203791 3.12192
lowerneck -15.5713 -2.82597 -1.09472
upperneck 16.0306 -3.63506 0.144504
head 7.51968 -1.78944 -0.171191
rclavicle 8.64713e-015 0
rhumerus -31.6976 -21.2084 -76.6586
rradius 27.2463
rwrist 5.21248
rhand -15.0725 22.064
rfingers 7.12502
rthumb 11.0948 -7.62277
lclavicle 8.64713e-015 0
lhumerus -28.6367 -3.63071 80.6391
lradius 34.6539
lwrist 2.60909
lhand -23.5458 29.1255
lfingers 7.12502
lthumb 2.91604 59.0853
rfemur -29.7611 0.424097 19.456
rtibia 41.8151
rfoot -9.26956 -9.85063
rtoes -12.3247
lfemur -1.61438 -4.57776 -28.1013
ltibia 29.5009
lfoot -19.2706 3.75022
ltoes -1.81202
251
root 1.12841 18.0697 7.77578 -2.66994 -2.0647 2.37189
lowerback 8.5598 -0.119301 -3.52354
upperback 1.70611 -0.435809 1.16196
thorax -2.99354 -0.184482 3.23665
lowerneck -15.5395 -2.8833 -1.21789
upperneck 16.14 -3.70448 0.241554
head 7.55502 -1.8206 -0.127623
rclavicle 1.19271e-015 -1.03368e-014
rhumerus -31.6659 -21.5327 -76.5508
rradius 26.8407
rwrist 5.0366
rhand -16.0139 20.8324
rfingers 7.12502
rthumb 10.1868 -8.90097
lclavicle 1.19271e-015 -1.03368e-014
lhumerus -28.2131 -3.76831 80.5146
lradius 34.8708
lwrist 2.01144
lhand -23.6524 29.8494
lfingers 7.12502
lthumb 2.81304 59.8106
rfemur -29.584 0.88109 19.4172
rtibia 38.8899
rfoot -8.84081 -10.285
rtoes -9.75233
lfemur -0.960572 -4.2164 -28.1259
ltibia 29.1794
lfoot -19.5126 3.7722
ltoes -2.30436
252
root 1.11467 18.0684 7.92156 -2.50934 -2.21949 2.12936
lowerback 8.40603 -0.136784 -3.42727
upperback 1.72944 -0.441303 1.28003
thorax -2.88322 -0.190393 3.30381
lowerneck -16.1146 -2.81633 -1.3239
upperneck 16.7467 -3.61031 0.368009
head 7.86034 -1.76573 -0.0726115
rclavicle 2.88238e-015 1.07344e-014
rhumerus -31.6029 -21.6888 -76.5306
rradius 26.6846
rwrist 4.95385
rhand -15.968 20.9869
rfingers 7.12502
rthumb 10.2311 -8.74429
lclavicle 2.88238e-015 1.07344e-014
lhumerus -27.8313 -3.84785 80.3558
lradius 35.1701
lwrist 1.71588
lhand -23.9946 31.2115
lfingers 7.12502
lthumb 2.48261 61.1768
rfemur -29.3815 1.54814 19.5954
rtibia 35.8451
rfoot -8.32685 -10.6329
rtoes -5.78554
lfemur -0.474443 -3.78295 -27.7913
ltibia 28.8938
lfoot -19.8113 3.64845
ltoes -2.51625
